<svg width="1058" height="785" viewBox="0 0 1058 785" fill="none" xmlns="http://www.w3.org/2000/svg">
<g id="undraw_Ride_a_bicycle_2yok 1">
<g clip-path="url(#clip0)">
<path id="Vector" d="M216.802 118.432C211.322 125.082 209.212 134.432 206.852 143.222C187.852 214.062 141.032 271.042 87.7121 311.742C65.1321 328.982 37.6421 352.102 42.5821 383.012C45.2421 399.612 56.9121 411.832 65.5821 425.352C83.7721 453.662 89.6721 492.142 81.0021 526.032C71.1421 564.592 43.5821 600.572 52.1121 639.562C57.3721 663.562 75.2321 680.642 92.4021 695.322C119.189 718.209 146.829 739.649 175.322 759.642C194.422 773.042 214.742 786.082 237.002 787.782C256.602 789.282 275.802 781.832 294.412 774.482C310.672 768.052 327.342 761.362 340.472 748.482C349.042 740.072 355.872 729.222 365.392 722.342C387.752 706.182 416.472 716.422 442.112 723.342C502.612 739.582 567.362 733.652 624.932 706.602C713.242 665.102 780.552 577.952 866.932 531.192C904.072 511.082 944.472 498.602 978.862 472.702C998.237 457.956 1014.89 439.938 1028.06 419.462C1054.06 379.352 1068.12 328.212 1064.06 278.152C1060 228.092 1037.25 179.852 1001.52 151.592C963.272 121.342 914.962 115.692 871.442 97.5322C826.502 78.7722 786.522 46.5322 742.012 26.4022C705.996 10.1588 666.8 2.18501 627.3 3.06578C587.8 3.94656 548.998 13.6596 513.742 31.4922C465.302 55.9922 416.202 113.152 362.252 117.492C323.812 120.492 246.822 82.0122 216.802 118.432Z" fill="url(#paint0_linear)"/>
<g id="leftwheel">
<path id="Vector_2" d="M255.725 715.778L249.455 617.838L249.325 617.628L243.005 619.828L213.925 704.678L167.675 671.888L241.345 618.478L241.415 618.268L241.835 618.118L246.585 614.668L169.345 571.358L150.425 592.158L153.425 611.658L242.245 613.278V615.278L151.765 613.658L148.345 591.518L174.245 563.058L212.995 517.858L213.685 519.728L221.885 510.728L252.345 516.188V514.978L254.345 515.038V516.548L299.705 524.668L257.415 609.278L251.245 613.748V614.248V614.808L349.045 580.728L337.435 671.938L254.435 619.068L251.515 617.428L300.455 696.308L255.725 715.778ZM251.725 621.438L257.575 712.818L297.625 695.438L251.725 621.438ZM171.145 671.868L212.935 701.498L240.275 621.758L171.145 671.868ZM253.465 616.208L255.555 617.378L335.905 668.578L346.705 583.708L253.465 616.208ZM246.365 609.008L248.875 613.058L249.315 612.738L252.315 518.208L222.575 512.888L214.415 521.888L246.365 609.008ZM170.945 569.948L245.785 611.948L244.485 609.818L212.905 523.548L175.715 564.418L170.945 569.948ZM254.345 518.558L251.345 611.278L255.865 607.998L296.775 526.178L254.345 518.558Z" fill="#535461"/>
<path id="Vector_3" d="M365.415 588.738C361.405 570.919 353.285 554.283 341.705 540.158C337.406 534.909 332.666 530.038 327.535 525.598C307.809 508.567 282.986 498.568 256.962 497.17C230.938 495.771 205.187 503.053 183.749 517.873C162.311 532.693 146.401 554.211 138.515 579.05C130.629 603.89 131.214 630.645 140.178 655.116C149.142 679.587 165.978 700.39 188.042 714.258C210.107 728.127 236.152 734.277 262.09 731.743C288.028 729.208 312.39 718.134 331.353 700.257C350.317 682.379 362.807 658.712 366.865 632.968C367.809 626.907 368.284 620.783 368.285 614.648C368.292 605.932 367.329 597.242 365.415 588.738ZM250.225 703.088C231.993 703.069 214.209 697.435 199.292 686.953C184.374 676.47 173.047 661.648 166.851 644.501C160.655 627.354 159.89 608.715 164.66 591.118C169.43 573.521 179.505 557.82 193.513 546.15C207.521 534.48 224.783 527.408 242.953 525.895C261.122 524.381 279.316 528.501 295.062 537.693C310.807 546.884 323.34 560.703 330.956 577.268C338.571 593.834 340.9 612.343 337.625 630.278C333.875 650.722 323.076 669.203 307.107 682.506C291.137 695.809 271.01 703.093 250.225 703.088V703.088Z" fill="#535461"/>
<path id="Vector_4" d="M250.225 627.058C257.3 627.058 263.035 621.323 263.035 614.248C263.035 607.174 257.3 601.438 250.225 601.438C243.15 601.438 237.415 607.174 237.415 614.248C237.415 621.323 243.15 627.058 250.225 627.058Z" fill="#535461"/>
</g>
<g id="rightwheel">
<path id="Vector_5" d="M681.847 715.78L675.587 617.88L675.457 617.67L669.137 619.87L640.047 704.68L593.797 671.88L667.487 618.47L667.557 618.26L667.977 618.11L672.727 614.66L595.487 571.35L576.557 592.15L579.557 611.65L668.357 613.23V615.23L577.877 613.61L574.477 591.5L600.367 563.05L639.087 517.88L639.777 519.75L647.977 510.75L678.517 516.22V515.01L680.517 515.07V516.58L725.877 524.7L683.547 609.35L677.377 613.82V614.32V614.88L775.187 580.8L763.577 672.01L680.577 619.14L677.657 617.5L726.597 696.39L681.847 715.78ZM677.847 621.44L683.697 712.82L723.747 695.44L677.847 621.44ZM597.277 671.88L639.067 701.51L666.407 621.77L597.277 671.88ZM679.597 616.22L681.687 617.39L762.037 668.59L772.837 583.72L679.597 616.22ZM672.497 609.02L675.007 613.07L675.447 612.75L678.447 518.22L648.707 512.88L640.547 521.88L672.497 609.02ZM597.107 569.97L671.947 611.97L670.647 609.84L639.067 523.57L601.867 564.45L597.107 569.97ZM680.477 518.58L677.477 611.27L681.997 607.99L722.907 526.17L680.477 518.58Z" fill="#535461"/>
<path id="Vector_6" d="M676.757 497C666.144 496.988 655.578 498.415 645.347 501.24C640.071 502.695 634.904 504.523 629.887 506.71C603.157 518.297 581.674 539.387 569.594 565.898C557.514 592.41 555.697 622.459 564.492 650.233C573.287 678.008 592.071 701.533 617.209 716.259C642.348 730.984 672.054 735.863 700.582 729.952C729.109 724.04 754.431 707.759 771.648 684.257C788.865 660.755 796.754 631.702 793.789 602.72C790.823 573.738 777.215 546.885 755.595 527.356C733.975 507.828 705.881 497.012 676.747 497H676.757ZM676.357 703.09C656.076 703.082 636.408 696.137 620.62 683.407C604.831 670.678 593.872 652.931 589.562 633.113C585.252 613.295 587.851 592.599 596.928 574.463C606.004 556.326 621.011 541.84 639.457 533.41C644.149 531.262 649.021 529.532 654.017 528.24C666.229 525.07 678.977 524.537 691.411 526.678C703.845 528.818 715.681 533.581 726.13 540.652C736.58 547.722 745.404 556.937 752.015 567.683C758.627 578.429 762.873 590.46 764.473 602.975C766.073 615.49 764.989 628.202 761.293 640.265C757.598 652.329 751.375 663.467 743.04 672.939C734.704 682.41 724.447 689.998 712.951 695.196C701.455 700.395 688.984 703.086 676.367 703.09H676.357Z" fill="#535461"/>
<path id="Vector_7" d="M676.357 627.06C683.432 627.06 689.167 621.325 689.167 614.25C689.167 607.175 683.432 601.44 676.357 601.44C669.282 601.44 663.547 607.175 663.547 614.25C663.547 621.325 669.282 627.06 676.357 627.06Z" fill="#535461"/>
</g>
<g id="manbike">
<path id="Vector_8" d="M387 554.303L344.293 512.159L330.947 525.683L373.654 567.827L387 554.303Z" fill="#535461"/>
<path id="Vector_9" d="M354.48 491.99C354.48 491.99 379.27 478.91 388.85 470.49C394.617 465.444 400.818 460.917 407.38 456.96L438.48 438.03L503.48 433.03L506.48 444.03C506.48 444.03 511.48 460.03 461.48 474.03C411.48 488.03 386.48 510.03 386.48 510.03C386.48 510.03 354.48 520.99 354.48 491.99Z" fill="#DB8B8B"/>
<path id="Vector_10" opacity="0.1" d="M389.13 507.86C387.36 509.21 386.48 509.99 386.48 509.99C386.48 509.99 354.48 520.99 354.48 491.99C354.48 491.99 356.03 491.17 358.48 489.8C360.955 493.831 364.423 497.16 368.551 499.469C372.679 501.778 377.33 502.99 382.06 502.99H385.45L389.13 507.86Z" fill="black"/>
<path id="Vector_11" opacity="0.05" d="M505.54 449.55C502.76 455.44 493.17 465.12 461.48 473.99C420.87 485.36 396.75 501.99 389.13 507.86C387.36 509.21 386.48 509.99 386.48 509.99C386.48 509.99 354.48 520.99 354.48 491.99C354.48 491.99 356.03 491.17 358.48 489.8C365.91 485.73 381.64 476.8 388.82 470.45C394.586 465.403 400.787 460.875 407.35 456.92L438.45 437.99L450.03 437.1L503.45 432.99L506.45 443.99C506.45 443.99 507.15 446.14 505.54 449.55Z" fill="black"/>
<path id="Vector_12" d="M354.98 485.49L328.48 502.99L406.08 567.99C406.08 567.99 417.48 560.99 411.48 552.99C411.48 552.99 391.48 535.99 390.48 511.99L384.48 503.99H381.09C375.358 503.991 369.767 502.211 365.089 498.897C360.412 495.583 356.88 490.898 354.98 485.49V485.49Z" fill="#ABB1D1"/>
<path id="Vector_13" opacity="0.1" d="M505.54 449.55C489.54 441.82 450.48 440.99 450.48 440.99L450.06 437.1L503.48 432.99L506.48 443.99C506.48 443.99 507.15 446.14 505.54 449.55Z" fill="black"/>
<path id="Vector_14" d="M450.48 438.99C450.48 438.99 497.48 439.99 509.48 449.99L503.48 328.99H438.48L450.48 438.99Z" fill="#ABB1D1"/>
<path id="Vector_15" opacity="0.05" d="M450.48 438.49C450.48 438.49 497.48 439.49 509.48 449.49L503.48 328.49H438.48L450.48 438.49Z" fill="black"/>
<path id="Vector_16" d="M488.24 364.95C488.24 364.95 605.89 360.95 608.29 376.16C610.69 391.37 490.64 384.96 490.64 384.96C490.64 384.96 481.04 375.35 488.24 364.95Z" fill="#535461"/>
<path id="Vector_17" opacity="0.05" d="M488.24 364.95C488.24 364.95 605.89 360.95 608.29 376.16C610.69 391.37 490.64 384.96 490.64 384.96C490.64 384.96 481.04 375.35 488.24 364.95Z" fill="black"/>
<path id="Vector_18" d="M393 425.78H372.19V606.66H393V425.78Z" fill="#7A7890"/>
<path id="Vector_19" opacity="0.1" d="M393 425.77V439.7C386.08 440.6 379 441.17 372.19 441.39V425.77H393Z" fill="black"/>
<path id="Vector_20" d="M391.44 410.78C388.52 410.554 385.616 410.164 382.74 409.61C371.46 407.45 343.02 402.92 335.37 410.61C325.77 420.21 328.97 437.02 354.58 439.42C380.19 441.82 424.21 435.42 433.02 425.81C433.02 425.77 417.09 412.75 391.44 410.78Z" fill="#535461"/>
<path id="Vector_21" d="M387.4 475.4L605.9 407.37L613.1 424.18L389 501.01L387.4 475.4Z" fill="#7A7890"/>
<path id="Vector_22" d="M452.23 582.65L609.9 427.38L618.7 440.18L468.23 597.05L452.23 582.65Z" fill="#7A7890"/>
<path id="Vector_23" opacity="0.1" d="M653.58 529.85C648.584 531.142 643.712 532.872 639.02 535.02L629.46 508.31C634.477 506.123 639.644 504.295 644.92 502.84L653.58 529.85Z" fill="black"/>
<path id="Vector_24" d="M680.33 608.26L669.13 614.66L590.99 396.33L587.49 386.56L605.9 376.15L610.51 390.53L680.33 608.26Z" fill="#7A7891"/>
<path id="Vector_25" opacity="0.1" d="M610.51 390.53L590.99 396.33L587.49 386.56L605.9 376.15L610.51 390.53Z" fill="black"/>
<path id="Vector_26" d="M491.44 407.37L601.09 369.75C601.09 369.75 620.3 372.15 613.09 388.16L502.65 420.97C502.65 420.97 485.85 422.57 491.44 407.37Z" fill="#535461"/>
<path id="Vector_27" opacity="0.1" d="M367.79 615.86C367.789 621.994 367.314 628.119 366.37 634.18C356.77 633.49 346.85 632.49 337.13 631.49C339.289 619.599 339.021 607.394 336.34 595.61C345.81 593.61 355.48 591.7 364.92 589.97C366.833 598.467 367.795 607.15 367.79 615.86V615.86Z" fill="black"/>
<path id="Vector_28" opacity="0.1" d="M393 585.38V606.65H372.19V588.65C379.39 587.4 386.39 586.29 393 585.38Z" fill="black"/>
<path id="Vector_29" d="M258.54 615.49C258.54 615.49 426.62 571.49 440.22 588.28C453.82 605.07 468.23 627.49 425.85 635.49C383.47 643.49 255.37 621.88 255.37 621.88L258.54 615.49Z" fill="#7A7890"/>
<path id="Vector_30" opacity="0.1" d="M341.21 541.37L319.85 560.92C316.067 556.064 311.791 551.614 307.09 547.64L327.03 526.81C332.164 531.249 336.908 536.12 341.21 541.37V541.37Z" fill="black"/>
<path id="Vector_31" d="M252.94 606.66L378.59 475.4L382.6 505.81L259.34 618.66L252.94 606.66Z" fill="#7A7890"/>
<path id="Vector_32" opacity="0.1" d="M251.34 628.27C258.415 628.27 264.15 622.535 264.15 615.46C264.15 608.385 258.415 602.65 251.34 602.65C244.265 602.65 238.53 608.385 238.53 615.46C238.53 622.535 244.265 628.27 251.34 628.27Z" fill="black"/>
<path id="Vector_33" opacity="0.1" d="M675.13 627.07C682.205 627.07 687.94 621.335 687.94 614.26C687.94 607.185 682.205 601.45 675.13 601.45C668.055 601.45 662.32 607.185 662.32 614.26C662.32 621.335 668.055 627.07 675.13 627.07Z" fill="black"/>
<path id="Vector_34" opacity="0.1" d="M448.22 628.27C462.364 628.27 473.83 616.804 473.83 602.66C473.83 588.516 462.364 577.05 448.22 577.05C434.076 577.05 422.61 588.516 422.61 602.66C422.61 616.804 434.076 628.27 448.22 628.27Z" fill="black"/>
<path id="Vector_35" d="M449.83 628.27C463.974 628.27 475.44 616.804 475.44 602.66C475.44 588.516 463.974 577.05 449.83 577.05C435.686 577.05 424.22 588.516 424.22 602.66C424.22 616.804 435.686 628.27 449.83 628.27Z" fill="#535461"/>
<path id="Vector_36" d="M442.992 600.736L442.984 600.742C439.977 602.991 439.362 607.253 441.611 610.26L461.937 637.441C464.186 640.448 468.448 641.063 471.455 638.814L471.463 638.808C474.471 636.559 475.085 632.297 472.836 629.29L452.51 602.109C450.261 599.102 446 598.487 442.992 600.736Z" fill="#6C63FF"/>
<path id="Vector_37" d="M565.48 246.99L563.1 277.1C562.826 280.914 562.876 284.744 563.25 288.55C563.56 291.92 563.25 297.82 559.95 306.82C555.713 318.317 553.523 330.467 553.48 342.72V376.99L530.48 372.99C530.48 372.99 531.48 324.99 527.48 316.99C523.48 308.99 530.48 237.99 530.48 237.99L565.48 246.99Z" fill="#DB8B8B"/>
<path id="Vector_38" opacity="0.05" d="M564.3 261.91L563.1 277.1C562.83 280.911 562.883 284.738 563.26 288.54C563.57 291.91 563.26 297.81 559.96 306.82C555.723 318.317 553.533 330.467 553.49 342.72V376.99L530.49 372.99C530.49 372.99 531.49 324.99 527.49 316.99C524.66 311.32 527.34 274.05 529.15 252.78C529.9 244.03 530.49 237.99 530.49 237.99L565.49 246.99L564.3 261.91Z" fill="black"/>
<path id="Vector_39" d="M451.5 476.99L442.85 526.19C441.759 532.759 440.086 539.218 437.85 545.49C432.78 559.35 436.02 578.78 438.48 589.38C439.57 594.06 440.48 597.02 440.48 597.02L414.48 611.02L406.48 605.02V601.02L405.48 512.02C399.48 498.02 401.48 477.02 405.48 469.02C406.617 466.392 407.417 463.63 407.86 460.8C409.86 450.08 410.48 435.02 410.48 435.02C410.48 435.02 426.48 408.02 445.48 426.02C452.48 432.65 455.14 441.32 455.7 449.62C456.68 463.83 451.5 476.99 451.5 476.99Z" fill="#DB8B8B"/>
<path id="Vector_40" opacity="0.1" d="M455.7 449.59C441.83 457.83 417.7 460.16 407.86 460.77C409.86 450.05 410.48 434.99 410.48 434.99C410.48 434.99 426.48 407.99 445.48 425.99C452.48 432.62 455.14 441.29 455.7 449.59Z" fill="black"/>
<path id="Vector_41" d="M489.48 424.99C478.846 430.653 468.797 437.352 459.48 444.99C443.48 457.99 403.48 458.99 403.48 458.99V443.99C404.48 425.99 387.48 405.99 364.48 349.99C349.79 314.23 353.86 293.99 358.72 283.99C361.48 278.34 364.48 275.99 364.48 275.99L489.48 299.99L493.95 313.39L503.48 341.99C503.48 341.99 468.48 343.99 462.48 346.99C456.48 349.99 460.48 376.99 460.48 376.99C454.48 404.99 489.48 424.99 489.48 424.99Z" fill="#ABB1D1"/>
<path id="Vector_42" opacity="0.1" d="M565.48 246.99L564.3 261.91C546.9 266.91 534.48 250.99 534.48 250.99C532.665 251.477 530.882 252.074 529.14 252.78C529.89 244.03 530.48 237.99 530.48 237.99L565.48 246.99Z" fill="black"/>
<path id="Vector_43" opacity="0.1" d="M493.95 313.39C493.48 318.06 493.48 320.99 493.48 320.99C493.48 320.99 470.48 339.99 431.48 310.99C392.48 281.99 357.48 289.99 357.48 289.99C357.48 289.99 357.89 287.67 358.72 283.99C361.48 278.34 364.48 275.99 364.48 275.99L489.48 299.99L493.95 313.39Z" fill="black"/>
<path id="Vector_44" d="M578.48 211C575.87 231.35 575 257 575 257C552 275 534 252 534 252C512.28 257.83 502.07 276.84 497.26 293.43C494.684 302.404 493.252 311.667 493 321C493 321 486.92 326 475.72 327C465.13 327.89 449.95 325.13 431 311C392 282 357 290 357 290C357 290 364 250 380 238C396 226 408 211 428 165C448 119 489 130 489 130C489 130 491 121 528 130C537.012 132.362 545.354 136.781 552.37 142.91C572.16 159.55 581.76 185.36 578.48 211Z" fill="white"/>
<path id="Vector_45" d="M541.85 149.49C541.8 150.82 541.69 152.3 541.51 153.95C539.51 171.95 537.51 169.95 515.51 173.95C501.83 176.44 494.72 165.01 491.3 156.01C490.062 152.75 489.128 149.382 488.51 145.95L536.51 137.95C536.51 137.95 542.26 136.34 541.85 149.49Z" fill="#DB8B8B"/>
<path id="Vector_46" opacity="0.05" d="M497.74 290.42C495.164 299.394 493.732 308.657 493.48 317.99C493.48 317.99 487.4 322.99 476.2 323.99C475.884 323.353 475.643 322.682 475.48 321.99C473.48 312.99 458.48 296.99 458.48 296.99C448.48 287.99 446.48 271.99 446.48 271.99L429.98 223.49L424.48 218.99C424.48 218.99 447.48 200.99 467.48 215.99C487.48 230.99 481.48 262.99 481.48 262.99L485.48 273.99C489.63 277.49 493.85 283.66 497.74 290.42Z" fill="black"/>
<path id="Vector_47" d="M427.48 217.99L449.48 270.99C449.48 270.99 451.48 286.99 461.48 295.99C461.48 295.99 476.48 311.99 478.48 320.99C480.48 329.99 508.48 353.99 508.48 353.99C508.48 353.99 534.48 377.99 536.48 386.99C536.48 386.99 560.48 393.99 557.48 407.99C557.48 407.99 575.48 389.99 557.48 372.99C539.48 355.99 515.48 320.99 515.48 320.99C515.48 320.99 501.48 283.99 488.48 272.99L484.48 261.99C484.48 261.99 490.48 229.99 470.48 214.99C450.48 199.99 427.48 217.99 427.48 217.99Z" fill="#DB8B8B"/>
<path id="Vector_48" opacity="0.1" d="M440.48 596.99L414.48 610.99L406.48 604.99V600.99C415.464 600.352 424.193 597.718 432.03 593.28C434.43 591.92 436.69 590.58 438.5 589.4C439.55 594.03 440.48 596.99 440.48 596.99Z" fill="black"/>
<path id="Vector_49" opacity="0.1" d="M470.48 175.99L484.48 230.99C484.48 230.99 441.48 237.99 432.48 230.99C423.48 223.99 406.48 221.99 406.48 221.99C406.48 221.99 424.48 169.99 434.48 163.99C444.48 157.99 470.48 175.99 470.48 175.99Z" fill="black"/>
<path id="Vector_50" d="M470.48 173.99L484.48 228.99C484.48 228.99 441.48 235.99 432.48 228.99C423.48 221.99 406.48 219.99 406.48 219.99C406.48 219.99 424.48 167.99 434.48 161.99C444.48 155.99 470.48 173.99 470.48 173.99Z" fill="white"/>
<path id="Vector_51" opacity="0.1" d="M541.85 148.49C539.049 152.356 535.487 155.609 531.383 158.047C527.278 160.485 522.718 162.058 517.983 162.669C513.248 163.28 508.439 162.915 503.85 161.598C499.261 160.281 494.99 158.039 491.3 155.01C490.062 151.75 489.128 148.382 488.51 144.95L536.51 136.95C536.51 136.95 542.26 135.34 541.85 148.49Z" fill="black"/>
<path id="Vector_52" d="M548.48 126.99C548.48 136.273 544.793 145.175 538.229 151.739C531.665 158.303 522.763 161.99 513.48 161.99C504.197 161.99 495.295 158.303 488.731 151.739C482.168 145.175 478.48 136.273 478.48 126.99C478.48 126.41 478.48 125.83 478.48 125.25C478.711 115.967 482.62 107.157 489.346 100.756C496.073 94.3555 505.067 90.8893 514.35 91.12C523.633 91.3508 532.443 95.2595 538.844 101.986C545.245 108.713 548.711 117.707 548.48 126.99V126.99Z" fill="#DB8B8B"/>
<path id="Vector_53" opacity="0.1" d="M548.48 126.99C548.483 130.216 548.039 133.426 547.16 136.53C544.455 137.12 541.633 136.861 539.08 135.79C535.34 134.32 532.13 131.79 528.54 129.97C518.43 124.85 506.4 125.86 495.2 127.55C489.64 128.39 483.33 129.17 478.96 125.63C478.81 125.511 478.666 125.385 478.53 125.25C478.761 115.967 482.67 107.157 489.396 100.756C496.123 94.3555 505.117 90.8893 514.4 91.12C523.683 91.3508 532.493 95.2595 538.894 101.986C545.295 108.713 548.761 117.707 548.53 126.99H548.48Z" fill="black"/>
<path id="Vector_54" opacity="0.05" d="M384.98 234.49C384.98 234.49 410.98 241.49 418.98 259.49C426.98 277.49 448.62 280.78 448.62 280.78" fill="black"/>
<path id="Vector_55" d="M431.99 595.23C437.36 592.23 442.07 589.23 442.48 587.99C442.48 587.99 456.03 602.29 468.1 606.73C472.159 608.229 476.044 610.16 479.69 612.49C484.47 615.49 491.29 619.02 497.48 619.02C497.48 619.02 511.48 631.02 484.48 633.02C457.48 635.02 394.48 628.02 394.48 628.02L398.48 603.02C410.167 603.705 421.804 601 431.99 595.23Z" fill="#ABB1D1"/>
<path id="Vector_56" d="M482.98 630.49H422.98V649.49H482.98V630.49Z" fill="#7A7890"/>
</g>
<g id="hat">
<path id="Vector_57" d="M453.16 105.34C455.29 112.02 465.52 112.23 470.77 117.15C473.5 119.71 474.77 123.49 477.77 125.77C481.94 128.95 487.96 128.25 493.27 127.49C503.96 125.97 515.44 125.06 525.08 129.67C528.5 131.3 531.57 133.58 535.14 134.91C538.71 136.24 543.14 136.4 546.04 134.04C548.36 132.15 549.21 129.04 551.31 126.96C552.94 125.32 555.21 124.4 557.07 122.96C561.15 119.88 562.91 114.86 564.07 110.06C566.47 100.18 567.16 89.53 563.07 80.16C558.98 70.79 549.14 63.16 538.4 63.65C535.11 63.8 531.9 64.65 528.62 65.01C520.07 65.88 511.62 63.01 503.04 62.52C500.551 62.2172 498.027 62.5616 495.71 63.52C493.963 64.4908 492.457 65.8406 491.3 67.47C487.372 72.6154 484.682 78.5969 483.44 84.95C482.44 89.74 482.39 94.08 476.52 94.82C469.85 95.7 448.65 91.21 453.16 105.34Z" fill="#472727"/>
</g>
</g>
</g>
<defs>
<linearGradient id="paint0_linear" x1="553.377" y1="3" x2="553.377" y2="787.976" gradientUnits="userSpaceOnUse">
<stop stop-color="#6C63FF"/>
<stop offset="0.856077" stop-color="#51FFB6" stop-opacity="0.223958"/>
<stop offset="1" stop-color="#6C63FF" stop-opacity="0"/>
</linearGradient>
<clipPath id="clip0">
<rect width="1057.7" height="784.98" fill="white"/>
</clipPath>
</defs>
</svg>
